<mxfile host="app.diagrams.net" modified="2022-05-10T08:05:56.159Z" agent="5.0 (X11; Linux x86_64) AppleWebKit/537.36 (KHTML, like Gecko) Chrome/101.0.4951.41 Safari/537.36" etag="0LFltBSvikLIfSzh0972" version="17.4.6" type="github">
  <diagram id="HcWggubIFDnYbVDW8_AB" name="Page-1">
    <mxGraphModel dx="1355" dy="893" grid="1" gridSize="10" guides="1" tooltips="1" connect="1" arrows="1" fold="1" page="1" pageScale="1" pageWidth="827" pageHeight="1169" math="0" shadow="0">
      <root>
        <mxCell id="0" />
        <mxCell id="1" parent="0" />
        <mxCell id="ZxO7Vm6uBEuebW4_tEUu-1" value="Hermes" style="rounded=0;whiteSpace=wrap;html=1;" parent="1" vertex="1">
          <mxGeometry x="320" y="140" width="120" height="60" as="geometry" />
        </mxCell>
        <mxCell id="oerierbim30S0MYoS4q5-1" value="" style="shape=cylinder3;whiteSpace=wrap;html=1;boundedLbl=1;backgroundOutline=1;size=15;" parent="1" vertex="1">
          <mxGeometry x="350" y="280" width="60" height="80" as="geometry" />
        </mxCell>
        <mxCell id="oerierbim30S0MYoS4q5-3" value="Algo" style="rounded=0;whiteSpace=wrap;html=1;" parent="1" vertex="1">
          <mxGeometry x="530" y="140" width="120" height="60" as="geometry" />
        </mxCell>
      </root>
    </mxGraphModel>
  </diagram>
</mxfile>
